<?xml version="1.0" encoding="utf-8"?>
<!-- Generator: Adobe Illustrator 16.2.0, SVG Export Plug-In . SVG Version: 6.00 Build 0)  -->
<!DOCTYPE svg PUBLIC "-//W3C//DTD SVG 1.1//EN" "http://www.w3.org/Graphics/SVG/1.1/DTD/svg11.dtd">
<svg version="1.1" id="Layer_1" xmlns="http://www.w3.org/2000/svg" xmlns:xlink="http://www.w3.org/1999/xlink" x="0px" y="0px"
	 width="374px" height="92px" viewBox="0 0 374 92" enable-background="new 0 0 374 92" xml:space="preserve">
<g>
	<path fill-rule="evenodd" clip-rule="evenodd" d="M54.671,15.984c-0.012,0.243-0.036,0.485-0.036,0.728
		c-0.001,3.581-0.012,7.162,0.013,10.743c0.003,0.55-0.162,0.687-0.695,0.68c-1.968-0.024-3.938-0.019-5.905,0.019
		c-0.67,0.013-1.347,0.108-2.003,0.248c-1.215,0.257-2.098,1.273-2.147,2.628c-0.091,2.547-0.083,5.098-0.128,7.646
		c-0.008,0.468,0.305,0.383,0.572,0.383c3.207,0.002,6.412,0.001,9.619,0.001c0.218,0,0.437,0,0.727,0
		c-0.43,4.088-0.851,8.083-1.276,12.121c-3.213,0-6.375,0-9.626,0c0,0.282,0,0.517,0,0.752c-0.004,11.269-0.008,22.537-0.013,33.806
		c0,0.225-0.009,0.449-0.013,0.675c-4.388,0-8.776,0-13.164,0c0.004-2.7,0.01-5.398,0.011-8.097c0.001-8.754,0-17.507,0.001-26.261
		c0-0.259,0-0.519,0-0.842c-2.935,0-5.829,0-8.767,0c-0.014-0.24-0.034-0.42-0.034-0.601c-0.002-3.636,0.009-7.272-0.014-10.909
		c-0.003-0.527,0.156-0.657,0.665-0.652c2.511,0.023,5.023-0.005,7.535,0.02c0.508,0.006,0.622-0.153,0.624-0.638
		c0.014-3.261,0-6.523,0.116-9.781c0.084-2.388,0.579-4.713,1.688-6.87c1.208-2.349,3.087-3.949,5.579-4.739
		c1.399-0.443,2.878-0.633,4.322-0.938c0.18-0.038,0.358-0.082,0.537-0.124C46.795,15.984,50.733,15.984,54.671,15.984z"/>
</g>
<path fill-rule="evenodd" clip-rule="evenodd" d="M111.458,71.292c-9.388-0.519-14.885-7.52-16.179-12.475
	c2.543,0.403,5.038,0.332,7.529-0.348c-4.002-1.067-7.371-3.108-9.953-6.389c-2.586-3.288-3.872-7.024-3.866-11.343
	c2.497,1.249,4.975,2.095,7.899,2.13c-3.848-2.819-6.333-6.375-7.318-10.897c-0.982-4.504-0.334-8.786,1.923-12.875
	c9.593,11.364,21.673,17.637,36.459,18.661c-0.118-1.194-0.274-2.268-0.323-3.346c-0.195-4.341,1.026-8.241,3.66-11.682
	c2.617-3.419,6.024-5.634,10.194-6.529c4.613-0.99,9.016-0.31,13.043,2.236c1.175,0.742,2.183,1.753,3.297,2.6
	c0.233,0.177,0.624,0.29,0.902,0.232c3.58-0.74,6.95-2.054,10.133-3.861c0.117-0.067,0.241-0.12,0.538-0.264
	c-1.371,4.167-3.853,7.241-7.313,9.566c0.019,0.063,0.037,0.126,0.056,0.189c1.055-0.188,2.12-0.332,3.163-0.573
	c1.072-0.248,2.132-0.562,3.18-0.9c1.043-0.336,2.065-0.74,3.205-1.012c-0.807,1.038-1.59,2.096-2.424,3.111
	c-1.721,2.097-3.701,3.92-5.839,5.578c-0.237,0.184-0.405,0.621-0.397,0.936c0.095,4.103-0.24,8.162-1.107,12.173
	c-1.004,4.646-2.584,9.082-4.741,13.309c-1.646,3.227-3.598,6.256-5.872,9.063c-2.171,2.68-4.519,5.208-7.288,7.265
	c-2.214,1.645-4.489,3.226-6.854,4.636c-3.616,2.156-7.545,3.57-11.619,4.606c-5.699,1.447-11.479,1.818-17.309,1.352
	c-4.203-0.337-8.295-1.265-12.282-2.691c-3.41-1.224-6.649-2.78-9.726-4.696c-0.148-0.094-0.293-0.192-0.623-0.409
	C95.31,79.555,103.888,77.184,111.458,71.292z"/>
<g>
	<path fill-rule="evenodd" clip-rule="evenodd" d="M249.857,42.481c-0.109,0.922-0.204,1.846-0.332,2.766
		c-0.729,5.23-2.469,10.063-5.774,14.24c-3.056,3.86-6.96,6.382-11.886,7.088c-2.658,0.382-5.351,0.426-7.852-0.765
		c-1.31-0.622-2.509-1.482-3.75-2.249c-0.602-0.372-1.183-0.777-1.869-1.229c-0.205,1.018-0.378,1.938-0.578,2.855
		c-0.981,4.515-2.018,9.014-4.106,13.181c-1.307,2.608-2.973,4.943-5.285,6.771c-0.129,0.103-0.258,0.203-0.391,0.301
		c-0.027,0.02-0.068,0.016-0.171,0.038c-0.102-0.885-0.227-1.76-0.3-2.64c-0.306-3.657-0.155-7.301,0.328-10.938
		c0.798-6.007,2.57-11.787,4.047-17.638c0.393-1.556,0.754-3.121,1.102-4.688c0.05-0.225,0.003-0.514-0.101-0.722
		c-1.215-2.445-1.458-5.026-1.108-7.691c0.236-1.789,0.745-3.501,1.631-5.078c1.082-1.924,2.515-3.449,4.779-3.966
		c2.232-0.51,5.082,0.612,6.126,2.459c0.632,1.12,0.733,2.355,0.634,3.612c-0.219,2.774-1.186,5.365-1.949,8.009
		c-0.612,2.117-1.2,4.248-1.641,6.405c-0.207,1.012-0.179,2.124-0.015,3.151c0.322,2.011,1.667,3.187,3.573,3.727
		c4.205,1.19,7.572-0.215,10.287-3.445c2.425-2.884,3.697-6.31,4.446-9.948c0.794-3.856,0.857-7.717-0.042-11.575
		c-1.269-5.44-4.781-8.808-9.94-10.495c-5.305-1.735-10.395-0.836-15.224,1.769c-3.264,1.761-5.91,4.217-7.821,7.416
		c-2.092,3.502-2.92,7.281-2.434,11.351c0.178,1.49,0.739,2.807,1.5,4.072c0.61,1.014,1.275,2.011,1.486,3.211
		c0.295,1.679-0.243,3.172-1.054,4.597c-0.048,0.085-0.281,0.126-0.407,0.097c-4.374-1.033-7.282-3.658-8.502-8.01
		c-0.372-1.326-0.499-2.721-0.739-4.084c-0.031-0.176-0.069-0.351-0.104-0.526c0-1.171,0-2.341,0-3.511
		c0.068-0.522,0.14-1.043,0.204-1.566c0.622-5.027,2.744-9.351,6.153-13.061c2.417-2.628,5.267-4.679,8.495-6.192
		c2.849-1.336,5.84-2.183,8.984-2.457c0.577-0.05,1.151-0.134,1.727-0.202c1.207,0,2.414,0,3.621,0
		c0.938,0.11,1.876,0.206,2.812,0.333c4.08,0.556,7.946,1.746,11.438,3.975c5.505,3.514,8.812,8.465,9.688,14.979
		c0.114,0.847,0.206,1.697,0.31,2.546C249.857,39.995,249.857,41.238,249.857,42.481z"/>
</g>
<g>
	<path fill-rule="evenodd" clip-rule="evenodd" d="M320.101,76.293c-0.131,0.104-0.262,0.207-0.397,0.305
		c-0.026,0.02-0.069,0.018-0.174,0.039"/>
</g>
<g>
	<path fill-rule="evenodd" clip-rule="evenodd" fill="#FFFFFF" d="M303.557,81.102c0.155,0.012,0.302,0.033,0.446,0.033
		c4.524,0.002,9.049-0.004,13.573,0.012c0.443,0.002,0.563-0.131,0.563-0.57c-0.016-4.301-0.014-8.602-0.008-12.902
		c0.006-4.094,0.008-8.192,0.042-12.286c0.017-2.19,0.999-3.974,2.506-5.488c1.37-1.375,3.046-2.061,4.987-2.176
		c2.894-0.173,5.324,0.995,6.589,3.552c0.878,1.776,1.192,3.679,1.199,5.626c0.027,7.82,0.02,15.639,0.025,23.459
		c0,0.234,0,0.471,0,0.74c4.898,0,9.73,0,14.585,0c0.012-0.15,0.03-0.275,0.03-0.402c0-8.471,0.021-16.941-0.017-25.413
		c-0.015-3.333-0.537-6.597-1.864-9.688c-1.501-3.496-3.861-6.21-7.351-7.826c-3.652-1.691-7.475-1.999-11.396-1.205
		c-2.803,0.566-5.182,1.915-7.117,4.014c-0.762,0.827-1.444,1.726-2.194,2.629c-0.009-0.195-0.024-0.372-0.024-0.548
		c-0.002-1.602-0.023-3.202,0.011-4.803c0.012-0.534-0.138-0.687-0.678-0.685c-4.45,0.022-8.899,0.012-13.35,0.014
		c-0.181,0-0.361,0.017-0.558,0.026C303.557,51.862,303.557,66.469,303.557,81.102z M295.352,81.1c0-14.648,0-29.26,0-43.911
		c-0.219,0-0.384,0-0.55,0c-4.448,0-8.896,0.01-13.345-0.013c-0.533-0.003-0.64,0.169-0.64,0.663
		c0.013,14.219,0.01,28.439,0.012,42.656c0,0.195,0.019,0.391,0.029,0.605C285.728,81.1,290.537,81.1,295.352,81.1z M288.087,31.194
		c0.013,0.047,0.023,0.095,0.037,0.143c1.135-0.245,2.316-0.369,3.399-0.76c2.78-1,4.428-3.041,4.776-5.97
		c0.342-2.858-0.559-5.332-2.95-7.042c-2.472-1.769-5.252-1.929-8.101-1.09c-5.173,1.524-6.608,7.344-4.115,11.223
		C282.754,30.215,285.208,31.147,288.087,31.194z"/>
	<path fill-rule="evenodd" clip-rule="evenodd" d="M303.557,81.102c0-14.633,0-29.239,0-43.886c0.196-0.01,0.377-0.026,0.558-0.026
		c4.45-0.001,8.899,0.008,13.35-0.014c0.54-0.002,0.689,0.151,0.678,0.685c-0.034,1.601-0.013,3.202-0.011,4.803
		c0,0.176,0.016,0.353,0.024,0.548c0.75-0.904,1.433-1.803,2.194-2.629c1.936-2.099,4.314-3.448,7.117-4.014
		c3.922-0.794,7.744-0.487,11.396,1.205c3.489,1.616,5.85,4.331,7.351,7.826c1.327,3.09,1.85,6.354,1.864,9.688
		c0.038,8.471,0.017,16.942,0.017,25.413c0,0.127-0.019,0.252-0.03,0.402c-4.854,0-9.687,0-14.585,0c0-0.27,0-0.506,0-0.74
		c-0.006-7.82,0.002-15.639-0.025-23.459c-0.007-1.948-0.321-3.85-1.199-5.626c-1.265-2.557-3.695-3.725-6.589-3.552
		c-1.941,0.115-3.617,0.801-4.987,2.176c-1.507,1.514-2.489,3.297-2.506,5.488c-0.034,4.094-0.036,8.192-0.042,12.286
		c-0.006,4.301-0.008,8.602,0.008,12.902c0.001,0.439-0.119,0.572-0.563,0.57c-4.524-0.016-9.049-0.01-13.573-0.012
		C303.858,81.135,303.712,81.113,303.557,81.102z"/>
	<path fill-rule="evenodd" clip-rule="evenodd" d="M295.352,81.1c-4.814,0-9.624,0-14.493,0c-0.011-0.215-0.029-0.41-0.029-0.605
		c-0.002-14.217,0.001-28.437-0.012-42.656c0-0.494,0.106-0.666,0.64-0.663c4.448,0.023,8.896,0.013,13.345,0.013
		c0.166,0,0.331,0,0.55,0C295.352,51.839,295.352,66.451,295.352,81.1z"/>
	<path fill-rule="evenodd" clip-rule="evenodd" d="M288.087,31.194c-2.879-0.046-5.333-0.979-6.953-3.497
		c-2.493-3.879-1.058-9.699,4.115-11.223c2.849-0.839,5.629-0.679,8.101,1.09c2.392,1.71,3.292,4.185,2.95,7.042
		c-0.349,2.93-1.996,4.97-4.776,5.97c-1.083,0.391-2.265,0.515-3.399,0.76C288.11,31.289,288.1,31.241,288.087,31.194z"/>
</g>
</svg>
